<!DOCTYPE svg PUBLIC "-//W3C//DTD SVG 1.1//EN" "http://www.w3.org/Graphics/SVG/1.1/DTD/svg11.dtd">
<!-- Uploaded to: SVG Repo, www.svgrepo.com, Transformed by: SVG Repo Mixer Tools -->
<svg width="800px" height="800px" viewBox="0 0 512 512" xmlns="http://www.w3.org/2000/svg" xmlns:xlink="http://www.w3.org/1999/xlink" aria-hidden="true" role="img" class="iconify iconify--fxemoji" preserveAspectRatio="xMidYMid meet" fill="#000000">
<g id="SVGRepo_bgCarrier" stroke-width="0"/>
<g id="SVGRepo_tracerCarrier" stroke-linecap="round" stroke-linejoin="round"/>
<g id="SVGRepo_iconCarrier">
<path fill="#ca38ff" d="M210.3 65.5c28.8 7.3 51.4 29.9 58.7 58.7c.7 2.8 4.3 2.8 5 0c7.3-28.8 29.9-51.4 58.7-58.7c2.8-.7 2.8-4.3 0-5c-28.8-7.3-51.4-29.9-58.7-58.7c-.7-2.8-4.3-2.8-5 0c-7.3 28.8-29.9 51.4-58.7 58.7c-2.8.7-2.8 4.3 0 5z"/>
<path fill="#df6bff" d="M6.7 188.3c50.8 12.9 90.8 52.9 103.7 103.7c1.2 4.9 7.5 4.9 8.8 0c12.9-50.8 52.9-90.8 103.7-103.7c4.9-1.2 4.9-7.5 0-8.8C172 166.7 132 126.7 119.2 75.9c-1.2-4.9-7.5-4.9-8.8 0c-12.9 50.8-52.9 90.8-103.7 103.7c-4.9 1.2-4.9 7.5 0 8.7z"/>
<path fill="#e9adff" d="M180 350.7c76 19.3 135.9 79.1 155.1 155.1c1.9 7.3 11.3 7.3 13.1 0c19.3-76 79.1-135.9 155.1-155.1c7.3-1.9 7.3-11.3 0-13.1c-76-19.3-135.9-79.1-155.1-155.1c-1.9-7.3-11.3-7.3-13.1 0c-19.3 76-79.1 135.9-155.1 155.1c-7.3 1.8-7.3 11.2 0 13.1z"/>
</g>
</svg>